<?xml version="1.0" encoding="UTF-8" standalone="no"?>
<!-- Created with Inkscape (http://www.inkscape.org/) -->

<svg
   version="1.1"
   id="svg1"
   width="1322"
   height="1322"
   viewBox="0 0 1322 1322"
   sodipodi:docname="logo-white-bg-square.svg"
   inkscape:version="1.4.3 (0d15f75, 2025-12-25)"
   xmlns:inkscape="http://www.inkscape.org/namespaces/inkscape"
   xmlns:sodipodi="http://sodipodi.sourceforge.net/DTD/sodipodi-0.dtd"
   xmlns="http://www.w3.org/2000/svg"
   xmlns:svg="http://www.w3.org/2000/svg">
  <defs
     id="defs1" />
  <sodipodi:namedview
     id="namedview1"
     pagecolor="#ffffff"
     bordercolor="#000000"
     borderopacity="0.25"
     inkscape:showpageshadow="2"
     inkscape:pageopacity="0.0"
     inkscape:pagecheckerboard="0"
     inkscape:deskcolor="#d1d1d1"
     inkscape:zoom="0.70710678"
     inkscape:cx="744.58344"
     inkscape:cy="605.99051"
     inkscape:window-width="2560"
     inkscape:window-height="1316"
     inkscape:window-x="-12"
     inkscape:window-y="-12"
     inkscape:window-maximized="1"
     inkscape:current-layer="layer1"
     showgrid="true" />
  <g
     inkscape:groupmode="layer"
     id="layer1"
     inkscape:label="background">
    <rect
       style="fill:#ffffff"
       id="rect2"
       width="1353.4023"
       height="1357.645"
       x="-19.79899"
       y="-22.627417" />
  </g>
  <path
     style="display:inline;fill:#a1c6ea"
     d="m 952.82204,1025.5762 c -45.18951,-5.1151 -90.38654,-20.997 -130.15532,-45.73572 -25.55582,-15.89732 -38.98985,-27.57157 -89.00001,-77.34157 -27.31667,-27.18548 -49.66667,-50.07989 -49.66667,-50.87646 0,-2.00179 106.02597,-107.33074 108.04101,-107.33074 0.89399,0 22.40114,20.55 47.79367,45.66667 35.26945,34.88627 49.09385,47.66108 58.56137,54.11519 30.12919,20.53939 61.61993,29.55855 96.9373,27.76348 64.95171,-3.30129 119.77811,-46.53261 139.22011,-109.77694 5.1574,-16.77663 6.7573,-27.15814 6.7698,-43.92708 0.037,-50.1459 -23.5703,-95.97182 -64.9784,-126.13193 -9.0211,-6.57063 -10.8681,-8.51439 -10.316,-10.8565 0.3698,-1.56909 2.44,-11.55289 4.6004,-22.18622 11.7305,-57.73771 26.9557,-127.16938 28.1896,-128.55324 2.0165,-2.26173 33.9253,12.55591 54.6657,25.38539 42.867,26.51639 79.8515,64.80492 104.806,108.50118 18.4766,32.35308 30.7013,67.64709 37.1769,107.33333 3.699,22.6692 3.4182,71.51419 -0.5441,94.66667 -11.2299,65.61757 -39.1298,120.37656 -85.4877,167.78573 -18.676,19.09962 -27.5364,26.4413 -49.9369,41.37744 -36.1777,24.12241 -74.9943,39.62802 -119.138,47.59052 -17.7659,3.2046 -68.60204,4.6743 -87.53876,2.5308 z"
     id="path65"
     inkscape:label="right"
     sodipodi:nodetypes="ssssssssscssssssssssss" />
  <path
     style="display:inline;fill:#6491c2"
     d="m 313.33335,1025.5601 c -39.80184,-2.2376 -76.74116,-11.9372 -114.63966,-30.10228 -19.90262,-9.53947 -24.68271,-12.37645 -46.02701,-27.31691 -15.86146,-11.10261 -28.5515,-22.25995 -45.4098,-39.92518 C 92.624121,912.88256 87.54751,906.46918 74.097147,886.32441 23.147329,810.01625 9.5256942,715.85629 36.550438,626.78166 56.78311,560.09396 100.32021,501.77878 159.33334,462.32173 c 29.33823,-19.61597 74.81643,-38.71147 108.00001,-45.34733 26.17518,-5.23436 41.04243,-6.38676 73.13723,-5.66906 30.56274,0.68343 41.49537,2.05793 66.59764,8.37293 28.55107,7.18262 68.71375,25.2467 95.08276,42.76564 21.86109,14.52399 38.78252,29.80142 89.84906,81.11978 l 46,46.22684 -44.75573,44.25059 c -24.61565,24.33782 -49.08229,48.41509 -54.37031,53.50503 l -9.61458,9.25445 -47.6297,-47.3671 c -55.90187,-55.59366 -63.66367,-61.95051 -89.12772,-72.99487 -39.06477,-16.94332 -81.09273,-17.02714 -121.26462,-0.24185 -35.27924,14.74095 -64.80515,44.4576 -80.53709,81.05737 -7.8003,18.14711 -11.01875,32.86997 -11.73986,53.70423 -0.73449,21.22065 1.05027,35.50531 6.66357,53.33333 8.09749,25.71785 20.81544,46.2919 40.13647,64.92948 26.60676,25.66559 56.394,39.60587 92.43678,43.25996 44.35333,4.49662 87.25444,-9.92497 121.80278,-40.9451 5.5,-4.93832 63.11563,-61.83852 128.03474,-126.44489 64.9191,-64.60636 143.96911,-142.94842 175.66667,-174.09346 31.69757,-31.14504 57.63194,-57.5093 57.63194,-58.58724 0,-1.07794 -21.10821,-23.12295 -46.90713,-48.9889 -30.94045,-31.02083 -46.25796,-47.26592 -45,-47.72502 1.04892,-0.38281 13.60713,-3.1211 27.90713,-6.08508 27.45658,-5.69098 127.84442,-27.01033 267.23022,-56.75166 79.0645,-16.87031 88.7698,-18.76301 88.7698,-17.31165 0,0.77076 -9.0369,43.99573 -17.2989,82.74356 -3.5964,16.86667 -9.3107,44.16667 -12.6985,60.66667 -3.3877,16.5 -10.8774,52.2 -16.6437,79.33333 -11.6791,54.95599 -26.3311,124.44711 -30.8539,146.33333 -1.6291,7.88334 -3.4402,14.33334 -4.0246,14.33334 -0.5844,0 -23.00357,-21.93975 -49.82044,-48.755 -27.73017,-27.72849 -49.59447,-48.57315 -50.69763,-48.33333 -1.06682,0.23191 -38.99478,37.33683 -84.28435,82.45538 -45.28957,45.11854 -128.84467,127.94102 -185.67801,184.04995 -85.98046,84.88454 -106.13219,104.10377 -120,114.44714 -61.95082,46.20628 -131.09335,67.06128 -208.00002,62.73758 z"
     id="path64"
     inkscape:label="left"
     sodipodi:nodetypes="sssssssssssscsscssssssssssssssssssssssssssss" />
  <path
     style="display:inline;fill:#2890ef"
     d="m 642.81029,814.75843 c -6.32038,-6.70236 -29.02373,-29.65998 -50.46984,-51 -21.4461,-21.34003 -40.81838,-41.50158 -40.82227,-42.24503 1.45294,-1.43859 92.39354,-92.43465 189.97927,-188.50214 39.55504,-38.93965 59.58988,-58.8871 59.77022,-60.78967 0.14148,-1.4925 1.35586,1.1192 0.0171,0.0387 -1.16423,-0.93962 -23.48693,-24.75796 -47.00859,-48.86606 -27.46529,-28.15005 -45.99397,-46.79307 -45.16798,-47.61906 0.70738,-0.70738 17.20681,-3.90646 31.08899,-6.8035 13.88219,-2.89704 37.91535,-7.99142 52.94868,-11.24446 46.75818,-10.11793 69.41495,-14.68605 112.16668,-23.67518 22.73333,-4.77999 64.03333,-13.77025 91.16667,-19.59641 C 1052.585,302.40839 1090.7335,295 1092.944,295 c 1.8833,0 -1.349,10.3074 -3.211,18.22917 -1.4212,6.04518 -3.0355,12.96539 -22.4755,106.47917 -10.0558,48.37259 -14.1066,69.24566 -21.9731,105.58333 -1.8257,8.43333 -6.0931,27.98333 -9.3303,43.75 -12.1428,59.14129 -20.7639,99.11705 -21.4374,101.375 -0.3828,1.28333 -1.7211,8.33333 -2.8976,8.33333 -1.1766,0 -26.48948,-25.0625 -52.04954,-50.72916 -32.78681,-32.42238 -46.14999,-46.16667 -48.18067,-46.16667 -2.03877,0 -20.66558,19.13382 -66.25648,64.54773 -35.6051,35.46687 -71.93654,71.53097 -80.73654,80.14243 -8.8,8.61146 -35.50534,35.31402 -59.48,58.9731 -32.04808,31.62624 -43.91064,43.36839 -45.04453,44.4889 -1.51951,1.50159 -0.76837,2.02944 -9.01772,-6.71846 z"
     id="arrow"
     sodipodi:insensitive="true"
     sodipodi:nodetypes="sscsssssssssscssssscsssssss" />
</svg>
